<svg width="38" height="38" viewBox="0 0 38 38" fill="none" xmlns="http://www.w3.org/2000/svg">
<path fill-rule="evenodd" clip-rule="evenodd" d="M0.395813 34.8335C0.395813 34.1777 0.927475 33.646 1.58331 33.646H36.4166C37.0725 33.646 37.6041 34.1777 37.6041 34.8335C37.6041 35.4893 37.0725 36.021 36.4166 36.021H1.58331C0.927475 36.021 0.395813 35.4893 0.395813 34.8335Z" fill="#313E48"/>
<path opacity="0.4" fill-rule="evenodd" clip-rule="evenodd" d="M31.3184 26.6001C31.9742 26.6001 32.5059 27.1318 32.5059 27.7876V34.8493C32.5059 35.5051 31.9742 36.0368 31.3184 36.0368C30.6625 36.0368 30.1309 35.5051 30.1309 34.8493V27.7876C30.1309 27.1318 30.6625 26.6001 31.3184 26.6001Z" fill="#009877"/>
<path fill-rule="evenodd" clip-rule="evenodd" d="M26.6791 20.726C26.6791 18.1385 28.7625 16.0552 31.35 16.0552C33.9375 16.0552 36.0208 18.1385 36.0208 20.726V24.3201C36.0208 26.9076 33.9375 28.991 31.35 28.991C28.7625 28.991 26.6791 26.9076 26.6791 24.3201V20.726ZM31.35 18.4302C30.0742 18.4302 29.0541 19.4502 29.0541 20.726V24.3201C29.0541 25.596 30.0742 26.616 31.35 26.616C32.6258 26.616 33.6458 25.596 33.6458 24.3201V20.726C33.6458 19.4502 32.6258 18.4302 31.35 18.4302Z" fill="#313E48"/>
<path fill-rule="evenodd" clip-rule="evenodd" d="M5.35437 6.79853C4.86257 7.29526 4.51245 8.13766 4.51245 9.54732V34.8331C4.51245 35.4889 3.98079 36.0206 3.32495 36.0206C2.66911 36.0206 2.13745 35.4889 2.13745 34.8331V9.54732C2.13745 7.77449 2.57904 6.22604 3.66665 5.12754C4.7564 4.02688 6.29621 3.57812 8.0592 3.57812H17.9233C19.6863 3.57812 21.2237 4.02694 22.31 5.12968C23.3931 6.22912 23.8291 7.77748 23.8291 9.54732V34.8331C23.8291 35.4889 23.2975 36.0206 22.6416 36.0206C21.9858 36.0206 21.4541 35.4889 21.4541 34.8331V9.54732C21.4541 8.13466 21.1065 7.29218 20.6181 6.7964C20.1329 6.3039 19.3112 5.95312 17.9233 5.95312H8.0592C6.67136 5.95312 5.84404 6.30397 5.35437 6.79853Z" fill="#313E48"/>
<path opacity="0.4" fill-rule="evenodd" clip-rule="evenodd" d="M7.99579 13.0625C7.99579 12.4067 8.52745 11.875 9.18329 11.875H17.0208C17.6766 11.875 18.2083 12.4067 18.2083 13.0625C18.2083 13.7183 17.6766 14.25 17.0208 14.25H9.18329C8.52745 14.25 7.99579 13.7183 7.99579 13.0625Z" fill="#009877"/>
<path opacity="0.4" fill-rule="evenodd" clip-rule="evenodd" d="M7.99579 19C7.99579 18.3442 8.52745 17.8125 9.18329 17.8125H17.0208C17.6766 17.8125 18.2083 18.3442 18.2083 19C18.2083 19.6558 17.6766 20.1875 17.0208 20.1875H9.18329C8.52745 20.1875 7.99579 19.6558 7.99579 19Z" fill="#009877"/>
<path opacity="0.4" fill-rule="evenodd" clip-rule="evenodd" d="M13.0625 27.7085C13.7183 27.7085 14.25 28.2402 14.25 28.896V34.8335C14.25 35.4893 13.7183 36.021 13.0625 36.021C12.4067 36.021 11.875 35.4893 11.875 34.8335V28.896C11.875 28.2402 12.4067 27.7085 13.0625 27.7085Z" fill="#009877"/>
</svg>
