<svg width="19" height="19" viewBox="0 0 19 19" fill="none" xmlns="http://www.w3.org/2000/svg">
<g clip-path="url(#clip0_143_1634)">
<path d="M0.045166 19L1.38071 14.121C0.556583 12.6928 0.123541 11.0738 0.124333 9.41371C0.126708 4.22354 4.35025 0 9.53962 0C12.0579 0.000791667 14.4218 0.981667 16.1999 2.76133C17.9772 4.541 18.9557 6.9065 18.9549 9.42242C18.9525 14.6134 14.729 18.8369 9.53962 18.8369C7.96421 18.8361 6.41175 18.4411 5.03662 17.6906L0.045166 19ZM5.26779 15.9861C6.59462 16.7738 7.86129 17.2457 9.53646 17.2465C13.8495 17.2465 17.3629 13.7362 17.3652 9.42083C17.3668 5.09675 13.87 1.59125 9.54279 1.58967C5.22662 1.58967 1.71558 5.09992 1.714 9.4145C1.71321 11.176 2.22937 12.4949 3.09625 13.8747L2.30537 16.7628L5.26779 15.9861ZM14.2825 11.6605C14.2239 11.5623 14.0672 11.5037 13.8313 11.3857C13.5961 11.2678 12.4395 10.6986 12.2234 10.6202C12.008 10.5418 11.8513 10.5023 11.6937 10.7382C11.537 10.9733 11.0857 11.5037 10.9488 11.6605C10.8118 11.8172 10.6741 11.837 10.439 11.719C10.2038 11.6011 9.44542 11.3533 8.54687 10.5513C7.84783 9.9275 7.37521 9.15721 7.23825 8.92129C7.10129 8.68617 7.224 8.55871 7.34117 8.44154C7.44725 8.33625 7.57629 8.16683 7.69425 8.02908C7.81379 7.89292 7.85258 7.79475 7.93175 7.63721C8.01012 7.48046 7.97133 7.34271 7.91196 7.22475C7.85258 7.10758 7.38233 5.94938 7.18679 5.47833C6.99521 5.01996 6.80125 5.08171 6.65717 5.07458L6.20592 5.06667C6.04917 5.06667 5.79425 5.12525 5.57892 5.36117C5.36358 5.59708 4.75558 6.1655 4.75558 7.32371C4.75558 8.48192 5.59871 9.60054 5.71587 9.75729C5.83383 9.91404 7.37442 12.2906 9.73437 13.3095C10.2957 13.5518 10.7342 13.6966 11.0755 13.8051C11.6391 13.984 12.1521 13.9587 12.5575 13.8985C13.0095 13.8312 13.9492 13.3293 14.1455 12.7799C14.3419 12.2297 14.3419 11.7586 14.2825 11.6605Z" fill="#009877"/>
</g>
<defs>
<clipPath id="clip0_143_1634">
<rect width="19" height="19" fill="white"/>
</clipPath>
</defs>
</svg>
