<svg width="164" height="96" viewBox="0 0 164 96" fill="none" xmlns="http://www.w3.org/2000/svg">
<g clip-path="url(#clip0_132_827)">
<path d="M42.9858 75.5457H47.1909V59.2527H53.0898V55.1501H37.0285V59.2527H42.9858V75.5457Z" fill="#2C261F"/>
<path d="M65.0627 75.8389C71.02 75.8389 75.5755 71.2674 75.5755 65.348C75.5755 59.4286 70.9616 54.8572 65.0627 54.8572C59.1638 54.8572 54.6083 59.4286 54.6083 65.348C54.6083 71.2674 59.1638 75.8389 65.0627 75.8389ZM65.0627 59.0183C68.6254 59.0183 71.2536 61.7143 71.2536 65.348C71.2536 68.9817 68.6254 71.6777 65.0627 71.6777C61.5584 71.6777 58.9302 68.9817 58.9302 65.348C58.8718 61.7143 61.5 59.0183 65.0627 59.0183Z" fill="#2C261F"/>
<path d="M82.4672 70.6813H85.7379C90.8775 70.6813 94.2065 67.5751 94.2065 62.8864C94.2065 58.1978 90.8191 55.1501 85.7379 55.1501H78.2621V75.5457H82.4672V70.6813ZM82.4672 59.1941H85.9715C88.2493 59.1941 89.8262 60.7179 89.8262 62.8864C89.8262 65.0549 88.2493 66.5787 85.9715 66.5787H82.4672V59.1941Z" fill="#2C261F"/>
<path d="M117.627 71.5018H108.808V55.1501H104.603V75.5457H117.627V71.5018Z" fill="#2C261F"/>
<path d="M128.548 55.1501H124.343V75.5457H128.548V55.1501Z" fill="#2C261F"/>
<path d="M136.783 67.9267H144.026V63.8241H136.783V59.2527H145.603V55.1501H132.578V75.5457H136.783V67.9267Z" fill="#2C261F"/>
<path d="M164 71.5018H154.889V67.1062H162.949V63.2967H154.889V59.1941H164V55.1501H150.684V75.5457H164V71.5018Z" fill="#2C261F"/>
<path d="M68.6253 90.0806V94.4176C68.6253 94.8864 68.4501 95.2967 68.1581 95.5897C67.8661 95.8828 67.4572 96 66.99 96C66.5228 96 66.1139 95.8828 65.8219 95.5311C65.5299 95.2381 65.3547 94.8278 65.3547 94.3003H66.1139C66.1139 94.5934 66.1723 94.8278 66.3476 95.0037C66.4644 95.1795 66.698 95.2967 66.99 95.2967C67.282 95.2967 67.5156 95.2381 67.6325 95.0623C67.7493 94.8864 67.8661 94.652 67.8661 94.4176V90.0806H68.6253Z" fill="#2C261F"/>
<path d="M73.473 90.0806V93.7729C73.473 94.3003 73.5898 94.652 73.8818 94.945C74.1154 95.1795 74.4658 95.2967 74.9331 95.2967C75.4003 95.2967 75.7507 95.1795 75.9844 94.945C76.218 94.7106 76.3932 94.3003 76.3932 93.7729V90.0806H77.1524V93.7729C77.1524 94.2417 77.0356 94.652 76.8604 95.0037C76.6852 95.3553 76.3932 95.5897 76.0428 95.7655C75.6923 95.9414 75.3419 96 74.9331 96C74.5242 96 74.1738 95.9414 73.8234 95.7655C73.473 95.5897 73.2393 95.3553 73.0641 95.0037C72.8889 94.652 72.7721 94.2417 72.7721 93.7729V90.0806H73.473Z" fill="#2C261F"/>
<path d="M84.453 94.652H81.8832L81.416 95.9414H80.5983L82.7009 90.1392H83.577L85.6795 95.9414H84.8619L84.453 94.652ZM84.2194 94.0073L83.1681 91.0769L82.1168 94.0073H84.2194Z" fill="#2C261F"/>
<path d="M93.7977 95.9414H93.0385L90.0014 91.3113V95.9414H89.2422V90.0806H90.0014L93.0385 94.7692V90.0806H93.7977V95.9414Z" fill="#2C261F"/>
<path d="M106.004 90.4322C106.471 90.6667 106.822 91.0183 107.055 91.4286C107.289 91.8974 107.406 92.3663 107.406 93.011C107.406 93.597 107.289 94.1245 107.055 94.5934C106.822 95.0622 106.471 95.3553 106.004 95.5897C105.537 95.8242 105.011 95.9414 104.369 95.9414H102.558V90.0806H104.369C105.011 90.0806 105.537 90.1978 106.004 90.4322ZM106.063 94.7106C106.471 94.3004 106.647 93.7729 106.647 93.011C106.647 92.3077 106.471 91.7216 106.063 91.3113C105.654 90.9011 105.07 90.7253 104.369 90.7253H103.318V95.3553H104.369C105.128 95.2967 105.712 95.1209 106.063 94.7106Z" fill="#2C261F"/>
<path d="M111.845 90.7253V92.6593H113.947V93.304H111.845V95.2967H114.181V95.9414H111.085V90.0806H114.181V90.7253H111.845Z" fill="#2C261F"/>
<path d="M126.212 94.652H123.642L123.175 95.9414H122.358L124.46 90.1392H125.336L127.439 95.9414H126.621L126.212 94.652ZM126.037 94.0073L124.986 91.0769L123.934 94.0073H126.037Z" fill="#2C261F"/>
<path d="M131.761 95.3553H133.805V95.9414H131.001V90.0806H131.761V95.3553Z" fill="#2C261F"/>
<path d="M138.01 90.0806H137.251V95.9414H138.01V90.0806Z" fill="#2C261F"/>
<path d="M145.369 94.652H142.799L142.332 95.9414H141.514L143.617 90.1392H144.493L146.595 95.9414H145.778L145.369 94.652ZM145.135 94.0073L144.084 91.0769L143.033 94.0073H145.135Z" fill="#2C261F"/>
<path d="M154.538 91.7802C154.363 91.4286 154.13 91.1941 153.838 90.9597C153.546 90.7253 153.195 90.6667 152.786 90.6667C152.377 90.6667 152.027 90.7839 151.677 90.9597C151.326 91.1355 151.093 91.4286 150.917 91.7802C150.742 92.1319 150.625 92.5421 150.625 93.011C150.625 93.4798 150.742 93.8901 150.917 94.2418C151.093 94.5934 151.385 94.8278 151.677 95.0623C152.027 95.2381 152.377 95.3553 152.786 95.3553C153.37 95.3553 153.838 95.1795 154.188 94.8278C154.538 94.4762 154.772 94.0073 154.83 93.4212H152.494V92.7766H155.648V93.3626C155.59 93.8315 155.473 94.3004 155.181 94.7106C154.947 95.1209 154.597 95.4139 154.188 95.6483C153.779 95.8828 153.312 96 152.786 96C152.261 96 151.735 95.8828 151.326 95.5897C150.859 95.3553 150.509 95.0037 150.275 94.5348C150.041 94.0659 149.866 93.5971 149.866 93.011C149.866 92.4249 149.983 91.8974 150.275 91.4872C150.509 91.0183 150.859 90.6667 151.326 90.4322C151.793 90.1978 152.261 90.022 152.786 90.022C153.429 90.022 153.954 90.1978 154.422 90.4908C154.889 90.7839 155.239 91.2527 155.473 91.7802H154.538Z" fill="#2C261F"/>
<path d="M162.715 94.652H160.145L159.678 95.9414H158.86L160.963 90.1392H161.839L163.942 95.9414H163.124L162.715 94.652ZM162.481 94.0073L161.43 91.0769L160.379 94.0073H162.481Z" fill="#2C261F"/>
<path d="M30.5456 83.5165V68.63V52.1612V51.282V0H28.2678V15.8828H23.0698V0H20.792V15.8828H12.6738V0H10.396V15.8828H4.20513V0H1.92735V15.8828H0V18.1685H6.65812V32.8791H0V35.1648H3.21225V49.8755H0V52.1612V52.337H6.54131V67.1062H0V69.3919H1.81054V83.2234H0V85.5091V85.8022H164V83.5165H30.5456ZM28.2678 49.8755H20.208V35.1648H28.2678V49.8755ZM16.7621 52.3956H20.7336V67.1648H16.7621V52.3956ZM17.8718 49.8755H14.5427V35.1648H17.8718V49.8755ZM12.1481 49.8755H5.60684V35.1648H12.1481V49.8755ZM8.9359 52.3956H14.4259V67.1648H8.9359V52.3956ZM12.6738 69.4505H20.7336V83.2234H12.6738V69.4505ZM23.0698 69.4505H28.2094V83.2234H23.0698V69.4505ZM28.2678 67.1648H23.0698V52.3956H28.2678V67.1648ZM28.2678 32.8791H23.0698V18.1685H28.2678V32.8791ZM8.9359 18.1685H20.7336V32.8791H8.9359V18.1685ZM10.2792 83.2234H4.20513V69.4505H10.2792V83.2234Z" fill="#42AFCC"/>
</g>
<defs>
<clipPath id="clip0_132_827">
<rect width="164" height="96" fill="white"/>
</clipPath>
</defs>
</svg>
