<?xml version="1.0" encoding="utf-8"?>
<!-- Generator: Adobe Illustrator 23.0.5, SVG Export Plug-In . SVG Version: 6.00 Build 0)  -->
<svg version="1.1" id="Capa_1" xmlns="http://www.w3.org/2000/svg" xmlns:xlink="http://www.w3.org/1999/xlink" x="0px" y="0px"
	 viewBox="0 0 38 38" style="enable-background:new 0 0 38 38;" xml:space="preserve">
<style type="text/css">
	.st0{fill:#313E48;}
	.st1{fill:#009877;}
</style>
<g>
	<path class="st0" d="M30.4,7.8l-11-3.4c-0.2-0.1-0.4-0.1-0.6,0L7.7,7.8C7.3,7.9,6.9,8.3,6.9,8.8v12.4c0,6.8,11.1,11.8,11.7,12.1
		c0.2,0.1,0.3,0.1,0.4,0.1s0.3-0.1,0.4-0.1c0.5-0.2,11.7-5.3,11.7-12.1V8.8C31.1,8.3,30.7,7.9,30.4,7.8z M29.1,21.2
		c0,4.4-6.9,8.6-10.1,10.1c-3.2-1.5-10.1-5.7-10.1-10.1V9.5l10.2-3.1l10,3.1V21.2z"/>
	<path class="st1" d="M15.2,18.6c-0.4-0.4-0.9-0.4-1.4,0c-0.4,0.4-0.4,0.9,0,1.4l2.8,2.8c0.2,0.2,0.4,0.3,0.7,0.3
		c0.3,0,0.5-0.1,0.7-0.3l6.1-6.1c0.4-0.4,0.4-0.9,0-1.4s-0.9-0.4-1.4,0l-5.4,5.3L15.2,18.6z"/>
</g>
</svg>
