<?xml version="1.0" encoding="utf-8"?>
<!-- Generator: Adobe Illustrator 23.0.5, SVG Export Plug-In . SVG Version: 6.00 Build 0)  -->
<svg version="1.1" id="Capa_1" xmlns="http://www.w3.org/2000/svg" xmlns:xlink="http://www.w3.org/1999/xlink" x="0px" y="0px"
	 viewBox="0 0 38 38" style="enable-background:new 0 0 38 38;" xml:space="preserve">
<style type="text/css">
	.st0{fill:#313E48;}
</style>
<path class="st0" d="M33.2,16.2c-0.6-0.7-1.6-1.1-2.5-1.1c0,0,0,0-0.1,0h-0.1c-0.7,0-1.3,0.3-1.9,0.7v-2.2c0-0.2-0.2-0.4-0.4-0.4
	h-0.5l0.2-0.2c0,0,0,0,0,0c0.7-1,0.9-2.4,0.3-3.5c0.1-0.2,0.1-0.5,0.1-0.7c0-1.8-1.5-3.3-3.3-3.3c-0.8,0-1.5,0.3-2,0.7
	c-0.9,0.1-1.8,0.6-2.4,1.3l0,0c0,0,0,0-0.1,0.1c-0.3,0.4-0.5,0.9-0.6,1.4l-0.9,3.5c-0.1,0.3-0.1,0.5,0,0.8h-1.3
	c0.6-0.8,0.8-1.8,0.6-2.8c0,0,0,0,0-0.1l0,0c-0.2-0.9-0.8-1.7-1.7-2.2c-0.6-1-1.6-1.7-2.9-1.7c-1.6,0-2.9,1.1-3.2,2.6
	c-1,0.8-1.5,2.1-1.2,3.4c0,0,0,0,0,0l0,0.1l0.3,0.8H9.7c-0.2,0-0.4,0.2-0.4,0.4v2.1c-0.6-0.6-1.5-0.9-2.4-0.9c-0.1,0-0.2,0-0.3,0h0
	c0,0,0,0,0,0c-1.2,0.1-2.3,0.9-2.8,2c-0.9,0.6-1.5,1.6-1.5,2.8c0,1.4,0.9,2.6,2.1,3c0.7,1,1.9,1.5,3,1.4h0c0,0,0,0,0,0
	c0.7-0.1,1.3-0.3,1.9-0.7v1.7c0,0.2,0.2,0.4,0.4,0.4h0.2l-0.2,2.5c0,0,0,0,0,0c0,0,0,0,0,0v0.1c0,1.3,0.8,2.4,1.9,3
	c0.5,1.1,1.7,1.9,3,1.9c1.5,0,2.9-1.1,3.2-2.5c0.7-0.7,1.1-1.6,1.1-2.6v0c0-0.9-0.4-1.7-0.9-2.3h2.3c-0.7,0.7-1.1,1.6-1.1,2.6v0
	c0.1,1.2,0.7,2.3,1.7,2.9c0.6,1,1.6,1.7,2.9,1.7c1.3,0,2.4-0.8,2.9-1.9c0,0,0,0,0,0c1-0.7,1.6-1.8,1.6-3v0c0-0.9-0.4-1.7-1-2.3h1
	c0.2,0,0.4-0.2,0.4-0.4v-0.7l2,0.1c0,0,0,0,0,0h0.1c1.3-0.1,2.4-0.8,3-1.9c1.1-0.5,1.9-1.6,1.9-3C35.8,17.8,34.7,16.5,33.2,16.2z
	 M21.3,29.1c0-1.3,1.1-2.4,2.4-2.4s2.4,1.1,2.4,2.4s-1.1,2.4-2.4,2.4S21.3,30.5,21.3,29.1z M21.7,25.2h4.2c0,0,0,0,0,0
	c0.9,0.4,1.5,1.3,1.6,2.3v0c0,0.5-0.1,1-0.4,1.5c0-1.8-1.5-3.2-3.3-3.2c-1.8,0-3.3,1.5-3.3,3.3c0,0,0,0.1,0,0.1
	c-0.3-0.4-0.5-0.9-0.5-1.4v0C20,26.7,20.7,25.6,21.7,25.2z M12.2,29.3c0-1.3,1.1-2.4,2.4-2.4s2.4,1.1,2.4,2.4s-1.1,2.4-2.4,2.4
	S12.2,30.7,12.2,29.3z M10.6,27.7L10.6,27.7l0.3-4.8c0-0.2,0.1-0.4,0.3-0.5s0.4-0.2,0.6-0.2c0.2,0,0.4,0.1,0.5,0.3
	c0.1,0.2,0.2,0.4,0.2,0.6l-0.2,2.7c0,0.2,0.2,0.4,0.4,0.5c0.2,0,0.4-0.2,0.5-0.4l0-0.6h3.4c0.9,0.4,1.5,1.3,1.5,2.3v0
	c0,0.4-0.1,0.8-0.2,1.1c-0.3-1.5-1.6-2.6-3.2-2.6c-1.8,0-3.3,1.5-3.3,3.3c0,0.1,0,0.1,0,0.2C10.9,29.1,10.6,28.4,10.6,27.7z
	 M5.5,16.9C6.9,16.9,8,18,8,19.4c0,1.3-1.1,2.4-2.4,2.4s-2.4-1.1-2.4-2.4C3.1,18,4.2,16.9,5.5,16.9z M9.2,17v4.8
	c-0.4,0.6-1.1,1-1.9,1.1h0c0,0,0,0,0,0c-0.5,0.1-1-0.1-1.4-0.3c1.7-0.2,3-1.5,3-3.3c0-1.8-1.5-3.3-3.3-3.3c-0.1,0-0.3,0-0.4,0
	c0.4-0.3,0.9-0.6,1.4-0.6h0c0,0,0,0,0,0C7.8,15.4,8.8,16,9.2,17z M16.3,9.6c0,1.3-1.1,2.4-2.4,2.4s-2.4-1.1-2.4-2.4s1.1-2.4,2.4-2.4
	S16.3,8.2,16.3,9.6z M16.7,13.1h-3.9c-0.1,0-0.1,0-0.1,0l-0.1,0c-0.2,0.1-0.3,0.3-0.3,0.5l0.8,2.5c0.1,0.2,0.1,0.4-0.1,0.6
	c-0.1,0.2-0.3,0.3-0.4,0.4c-0.2,0.1-0.4,0.1-0.6-0.1c-0.2-0.1-0.3-0.3-0.4-0.4l-1.4-4.6l0,0l0,0l0,0c-0.2-0.7,0-1.3,0.3-1.9
	c0.3,1.5,1.6,2.7,3.2,2.7c1.8,0,3.3-1.5,3.3-3.3c0-0.1,0-0.1,0-0.1c0.2,0.3,0.4,0.7,0.5,1c0,0,0,0,0,0.1l0,0
	C17.8,11.5,17.5,12.5,16.7,13.1z M24.6,17.7l-3.1,4.2l-2.9-2.1l3.1-4.2l0.3,0.3c0.1,0.3,0.3,0.6,0.5,0.8c0.3,0.3,0.7,0.4,1.1,0.4
	L24.6,17.7z M22.4,12.6c0.2,0.2,0.5,0.4,0.7,0.5h-0.8L22.4,12.6z M22.8,13.9l-0.4,0.4c-0.1,0.1-0.2,0.3-0.3,0.5l0,0
	c-0.1-0.1-0.3-0.1-0.4-0.1c0,0-0.1,0-0.1,0c-0.2,0-0.4,0.1-0.5,0.2c0,0,0,0,0,0l-1.6,2.2l-0.2-0.8c-0.1-0.2-0.2-0.4-0.4-0.5
	c-0.1-0.1-0.2-0.1-0.4-0.1c-0.1,0-0.1,0-0.2,0l-4.5,0.9c0-0.2,0-0.4-0.1-0.6l-0.6-2h6.3c0.2,0.2,0.4,0.3,0.6,0.3
	c0.5,0.1,1,0,1.4-0.3H22.8z M17.7,19.9c0,0.2,0.1,0.3,0.2,0.4L14.2,21l-0.7-3.4c0,0,0.1-0.1,0.1-0.1l5-1l0.3,1.4l-1,1.4
	C17.8,19.5,17.7,19.7,17.7,19.9z M22.2,7.2c-0.2,0.4-0.3,0.9-0.3,1.4c0,0.6,0.2,1.1,0.4,1.6c-0.1,0.1-0.2,0.2-0.3,0.3l-0.6,2.4
	c-0.1,0.4-0.5,0.6-0.9,0.5c-0.4-0.1-0.6-0.5-0.5-0.9l0.9-3.5c0,0,0,0,0-0.1c0.1-0.4,0.2-0.7,0.4-1l0,0c0,0,0,0,0-0.1
	C21.6,7.6,21.9,7.4,22.2,7.2z M27.6,8.6c0,1.3-1.1,2.4-2.4,2.4c-1.3,0-2.4-1.1-2.4-2.4s1.1-2.4,2.4-2.4C26.5,6.2,27.6,7.3,27.6,8.6z
	 M27.4,12.4L24.2,16c-0.1,0.2-0.3,0.2-0.5,0.3c-0.2,0-0.4-0.1-0.6-0.2s-0.2-0.3-0.3-0.5c0-0.2,0.1-0.4,0.2-0.6l1.7-1.9
	c0.2-0.2,0.1-0.4,0-0.6c-0.2-0.2-0.4-0.1-0.6,0L24,12.7c-0.5-0.3-0.9-0.6-1.3-1l0.2-0.8c0.6,0.6,1.4,1,2.4,1c1.1,0,2.1-0.5,2.7-1.4
	C27.9,11.2,27.8,11.8,27.4,12.4z M27.1,13.9h0.8v6.9l-1.7-0.1c0,0-0.1,0-0.1,0c-0.8,0-1.5,0.7-1.6,1.5c-0.1,0.9,0.6,1.7,1.5,1.7
	l1.9,0.1v0.3h-6.2l0,0l0,0h-8.5l0.1-1.2c0-0.4-0.1-0.8-0.4-1.2c-0.3-0.3-0.7-0.5-1.1-0.6c0,0-0.1,0-0.1,0c-0.4,0-0.8,0.1-1.1,0.4
	c-0.2,0.2-0.4,0.4-0.5,0.7v-8.3l0.8,2.7c0.1,0.4,0.4,0.7,0.8,0.9c0.3,0.2,0.7,0.2,1,0.2l0.7,3.3c0.1,0.2,0.2,0.4,0.4,0.5
	c0.2,0.1,0.4,0.1,0.5,0.1l4.5-0.9l2.3,1.7c0.1,0.1,0.3,0.2,0.5,0.1c0.2,0,0.4-0.1,0.5-0.2l3.3-4.5c0.2-0.3,0.2-0.7-0.1-0.9l0,0
	l-0.6-0.4c0.1-0.1,0.1-0.1,0.2-0.2L27.1,13.9L27.1,13.9z M31.8,16.2c-1.5,0.3-2.6,1.6-2.6,3.2c0,1.8,1.5,3.3,3.3,3.3
	c0,0,0.1,0,0.1,0c-0.5,0.5-1.1,0.7-1.8,0.7h0L26,23.1c-0.4,0-0.7-0.4-0.7-0.8c0-0.4,0.4-0.7,0.8-0.7l2.7,0.2c0.2,0,0.4-0.2,0.5-0.4
	c0-0.2-0.2-0.4-0.4-0.5l-0.1,0v-4c0.5-0.6,1.2-0.9,1.9-0.9h0.1C31.1,15.9,31.5,16,31.8,16.2z M34.9,19.4c0,1-0.6,1.9-1.5,2.3
	c0,0,0,0-0.1,0c-0.3,0.1-0.6,0.2-0.9,0.2c-1.3,0-2.4-1.1-2.4-2.4c0-1.3,1.1-2.4,2.4-2.4C33.8,16.9,34.9,18,34.9,19.4z"/>
</svg>
