<?xml version="1.0" encoding="utf-8"?>
<!-- Generator: Adobe Illustrator 23.0.5, SVG Export Plug-In . SVG Version: 6.00 Build 0)  -->
<svg version="1.1" id="Capa_1" xmlns="http://www.w3.org/2000/svg" xmlns:xlink="http://www.w3.org/1999/xlink" x="0px" y="0px"
	 viewBox="0 0 38 38" style="enable-background:new 0 0 38 38;" xml:space="preserve">
<style type="text/css">
	.st0{fill:#313E48;}
	.st1{fill:#009877;}
</style>
<path class="st0" d="M19,36.5c7.1,0,12.9-5.8,12.9-12.9c0-6.9-5.5-12.6-12.3-12.9V8.8L20.4,8c0.4,0.2,0.8,0.3,1.2,0.3
	c0.2,0,0.3,0,0.5,0c0.8-0.1,1.6-0.5,2.2-1.1c1.8-1.8,1.7-4.9,1.7-5c0-0.3-0.3-0.6-0.6-0.6c-0.1,0-3.3,0-5,1.7
	c-0.6,0.6-1,1.4-1.1,2.2c-0.1,0.6,0,1.2,0.3,1.7L19,7.7l-0.6-0.6C19,6,18.7,4.4,17.5,3.2c-1.8-1.8-4.9-1.7-5-1.7
	c-0.3,0-0.6,0.3-0.6,0.6c0,0.1,0,3.3,1.7,5c0.8,0.8,1.8,1.2,2.7,1.2c0.4,0,0.9-0.1,1.2-0.3l0.8,0.8v1.9c-6.8,0.3-12.3,6-12.3,12.9
	C6.1,30.7,11.9,36.5,19,36.5z M8.3,28.2c0.3,0.1,0.5,0.2,0.9,0.2c1.2,0.1,1.8,0.5,2.5,1c0.6,0.4,1.3,0.9,2.3,0.9
	c0.6,0,1-0.3,1.3-0.5c0.5-0.3,0.6-0.4,0.9-0.2c0.8,0.5,1.3,1.3,1.5,2.2c0.1,0.7,0.7,1.1,1.2,1.5c0.3,0.2,0.7,0.5,0.8,0.8
	c0.1,0.2,0.1,0.8,0,1.2c-0.2,0-0.4,0-0.6,0C14.2,35.3,10,32.4,8.3,28.2z M30.3,20.8c-0.4-0.3-0.8-0.7-1.1-1.2
	c-0.7-0.9-1.6-2.1-3.5-1.2c-0.7,0.3-1.4,0.4-2.1,0.4c-0.8,0-1.6,0.1-2.1,0.7c-0.4,0.6-0.3,1.3-0.2,1.8c0.2,0.9,1.6,1.8,2.3,2.2
	l-0.1,2.9l-0.4,0.8c-0.3-0.9-0.6-2-0.9-2.7c-0.4-1.1-1.7-1.1-3.2-1c-1,0-2.2,0.1-2.9-0.4c-0.3-0.2-0.4-0.4-0.4-0.5
	c-0.1-0.4,0.3-1,0.6-1.4c0.3-0.4,0.5-0.7,0.4-1.1c-0.1-0.5-0.5-0.7-0.9-0.8c0.3-0.4,0.5-0.8,0.6-1.3c0.3-0.7,0.6-1.4,1-1.7
	c0.3-0.2,0.8-0.2,1.2-0.3c0.9,0,1.9-0.1,2.6-1.3c0.6-1,0.2-2.1-0.3-2.9C25.6,13,29.2,16.4,30.3,20.8z M20.5,5.6
	c0.1-0.5,0.4-1.1,0.8-1.5c1-1,2.6-1.3,3.5-1.4c-0.1,0.9-0.4,2.5-1.4,3.5c-0.4,0.4-1,0.7-1.5,0.8c-0.3,0-0.8,0.1-1.2-0.3
	C20.5,6.4,20.5,5.9,20.5,5.6z M14.5,6.3c-1-1-1.3-2.6-1.4-3.5c0.9,0.1,2.5,0.4,3.5,1.4c0.8,0.8,1.1,2.1,0.5,2.7
	C16.6,7.4,15.3,7.1,14.5,6.3z M19,11.9c0.1,0,0.3,0,0.4,0c0.4,0.3,1.5,1.6,1,2.4c-0.3,0.6-0.8,0.6-1.7,0.7c-0.6,0-1.2,0.1-1.8,0.4
	c-0.8,0.5-1.2,1.4-1.5,2.2c-0.2,0.5-0.4,1-0.7,1.3c-0.3,0.3-0.5,0.6-0.4,1c0.1,0.5,0.6,0.6,1,0.6c0,0,0,0.1-0.1,0.1
	c-0.4,0.6-0.9,1.4-0.7,2.3c0.1,0.5,0.4,0.9,0.9,1.2c1,0.6,2.4,0.6,3.6,0.5c0.7,0,1.9,0,2,0.2c0.4,1.3,1.3,4.1,1.3,4.2
	c0.1,0.2,0.3,0.4,0.5,0.4c0,0,0,0,0.1,0c0.2,0,0.4-0.1,0.5-0.3l1.1-2.3c0-0.1,0.1-0.2,0.1-0.2l0.2-3.5c0-0.2-0.1-0.5-0.3-0.6
	c-0.9-0.5-1.9-1.2-2-1.6c-0.1-0.6,0-0.8,0-0.8c0.1-0.2,0.7-0.2,1.2-0.2c0.7,0,1.7-0.1,2.6-0.5c0.9-0.4,1.2-0.1,2,0.9
	c0.5,0.7,1.2,1.5,2.3,1.9c0,0.4,0.1,0.9,0.1,1.3c0,5.8-4.3,10.7-9.9,11.5c0.1-0.5,0.1-1.1-0.1-1.6c-0.3-0.6-0.7-0.9-1.2-1.2
	c-0.4-0.3-0.6-0.5-0.7-0.7c-0.2-1.3-0.9-2.4-2-3.1c-1-0.6-1.7-0.1-2.2,0.3c-0.2,0.2-0.5,0.3-0.6,0.3c-0.7,0-1.1-0.3-1.7-0.7
	c-0.7-0.5-1.5-1.1-3.1-1.2c-1-0.1-1.5-0.9-1.6-0.9c-0.2-0.9-0.3-1.8-0.3-2.7C7.3,17.2,12.5,11.9,19,11.9z"/>
<path class="st1" d="M16.3,8.3c0.4,0,0.9-0.1,1.2-0.3l0.8,0.8v1.8h1.2V8.8L20.4,8c0.4,0.2,0.8,0.3,1.2,0.3c0.2,0,0.3,0,0.5,0
	c0.8-0.1,1.6-0.5,2.2-1.1c1.8-1.8,1.7-4.9,1.7-5c0-0.3-0.3-0.6-0.6-0.6c-0.1,0-3.3,0-5,1.7c-0.6,0.6-1,1.4-1.1,2.2
	c-0.1,0.6,0,1.2,0.3,1.7L19,7.7l-0.6-0.6C19,6,18.7,4.4,17.5,3.2c-1.8-1.8-4.9-1.7-5-1.7c-0.3,0-0.6,0.3-0.6,0.6c0,0.1,0,3.3,1.7,5
	C14.4,7.9,15.4,8.3,16.3,8.3z M20.5,5.6c0.1-0.5,0.4-1.1,0.8-1.5c1-1,2.6-1.3,3.5-1.4c-0.1,0.9-0.4,2.5-1.4,3.5
	c-0.4,0.4-1,0.7-1.5,0.8c-0.3,0-0.8,0.1-1.2-0.3C20.5,6.4,20.5,5.9,20.5,5.6z M16.7,4.1c0.8,0.8,1.1,2.1,0.5,2.7
	c-0.6,0.6-1.9,0.3-2.7-0.5c-1-1-1.3-2.6-1.4-3.5C14,2.8,15.7,3.1,16.7,4.1z"/>
</svg>
